<?xml version="1.0" encoding="UTF-8"?> <svg xmlns="http://www.w3.org/2000/svg" width="276" height="115" viewBox="0 0 276 115" fill="none"> <path d="M11.8855 70.2383C4.29417 62.87 0.00195312 52.7253 0.00195312 42.1334C0.00195312 20.5238 17.4995 3 39.0749 3C49.2222 3 58.9766 6.96056 66.2607 14.0266L11.8855 70.2383V70.2383Z" fill="url(#paint0_linear_123_232)"></path> <path d="M54.3752 46.9217C61.9629 54.2883 66.2551 64.433 66.2551 75.0177C66.2551 96.6219 48.7594 114.144 27.1876 114.144C17.0438 114.144 7.2823 110.183 0 103.114L54.3752 46.9199V46.9217V46.9217Z" fill="url(#paint1_linear_123_232)"></path> <path d="M102.34 47.24C99.5402 47.24 96.9402 46.82 94.5402 45.98C92.1802 45.1 90.3402 44 89.0202 42.68C88.4202 42.04 88.1602 41.32 88.2402 40.52C88.3602 39.68 88.7602 39 89.4402 38.48C90.2402 37.84 91.0202 37.58 91.7802 37.7C92.5802 37.78 93.2602 38.12 93.8202 38.72C94.5002 39.48 95.5802 40.2 97.0602 40.88C98.5802 41.52 100.26 41.84 102.1 41.84C104.42 41.84 106.18 41.46 107.38 40.7C108.62 39.94 109.26 38.96 109.3 37.76C109.34 36.56 108.76 35.52 107.56 34.64C106.4 33.76 104.26 33.04 101.14 32.48C97.1002 31.68 94.1602 30.48 92.3202 28.88C90.5202 27.28 89.6202 25.32 89.6202 23C89.6202 20.96 90.2202 19.28 91.4202 17.96C92.6202 16.6 94.1602 15.6 96.0402 14.96C97.9202 14.28 99.8802 13.94 101.92 13.94C104.56 13.94 106.9 14.36 108.94 15.2C110.98 16.04 112.6 17.2 113.8 18.68C114.36 19.32 114.62 20 114.58 20.72C114.54 21.4 114.2 21.98 113.56 22.46C112.92 22.9 112.16 23.04 111.28 22.88C110.4 22.72 109.66 22.36 109.06 21.8C108.06 20.84 106.98 20.18 105.82 19.82C104.66 19.46 103.32 19.28 101.8 19.28C100.04 19.28 98.5402 19.58 97.3002 20.18C96.1002 20.78 95.5002 21.66 95.5002 22.82C95.5002 23.54 95.6802 24.2 96.0402 24.8C96.4402 25.36 97.2002 25.88 98.3202 26.36C99.4402 26.8 101.08 27.24 103.24 27.68C106.24 28.28 108.6 29.04 110.32 29.96C112.08 30.88 113.34 31.96 114.1 33.2C114.86 34.4 115.24 35.8 115.24 37.4C115.24 39.24 114.74 40.9 113.74 42.38C112.78 43.86 111.34 45.04 109.42 45.92C107.54 46.8 105.18 47.24 102.34 47.24Z" fill="url(#paint2_linear_123_232)"></path> <path d="M134.258 47.24C131.018 47.24 128.158 46.54 125.678 45.14C123.198 43.7 121.238 41.74 119.798 39.26C118.398 36.74 117.698 33.86 117.698 30.62C117.698 27.34 118.398 24.46 119.798 21.98C121.238 19.46 123.198 17.5 125.678 16.1C128.158 14.66 131.018 13.94 134.258 13.94C137.458 13.94 140.298 14.66 142.778 16.1C145.258 17.5 147.198 19.46 148.598 21.98C150.038 24.46 150.758 27.34 150.758 30.62C150.758 33.86 150.058 36.74 148.658 39.26C147.258 41.74 145.318 43.7 142.838 45.14C140.358 46.54 137.498 47.24 134.258 47.24ZM134.258 41.84C136.338 41.84 138.178 41.36 139.778 40.4C141.378 39.44 142.618 38.12 143.498 36.44C144.418 34.76 144.878 32.82 144.878 30.62C144.878 28.42 144.418 26.48 143.498 24.8C142.618 23.08 141.378 21.74 139.778 20.78C138.178 19.82 136.338 19.34 134.258 19.34C132.178 19.34 130.338 19.82 128.738 20.78C127.138 21.74 125.878 23.08 124.958 24.8C124.038 26.48 123.578 28.42 123.578 30.62C123.578 32.82 124.038 34.76 124.958 36.44C125.878 38.12 127.138 39.44 128.738 40.4C130.338 41.36 132.178 41.84 134.258 41.84Z" fill="url(#paint3_linear_123_232)"></path> <path d="M164.067 47C162.307 47 160.747 46.52 159.387 45.56C158.027 44.6 156.967 43.3 156.207 41.66C155.447 39.98 155.067 38.06 155.067 35.9V3.14002C155.067 2.26001 155.347 1.54001 155.907 0.980014C156.467 0.420014 157.187 0.140015 158.067 0.140015C158.947 0.140015 159.667 0.420014 160.227 0.980014C160.787 1.54001 161.067 2.26001 161.067 3.14002V35.9C161.067 37.38 161.347 38.6 161.907 39.56C162.467 40.52 163.187 41 164.067 41H165.567C166.367 41 167.007 41.28 167.487 41.84C168.007 42.4 168.267 43.12 168.267 44C168.267 44.88 167.887 45.6 167.127 46.16C166.367 46.72 165.387 47 164.187 47H164.067Z" fill="url(#paint4_linear_123_232)"></path> <path d="M174.315 47C173.435 47 172.695 46.72 172.095 46.16C171.535 45.56 171.255 44.82 171.255 43.94V17.24C171.255 16.32 171.535 15.58 172.095 15.02C172.695 14.46 173.435 14.18 174.315 14.18C175.235 14.18 175.975 14.46 176.535 15.02C177.095 15.58 177.375 16.32 177.375 17.24V43.94C177.375 44.82 177.095 45.56 176.535 46.16C175.975 46.72 175.235 47 174.315 47ZM174.315 8.84001C173.235 8.84001 172.295 8.46001 171.495 7.70001C170.735 6.90001 170.355 5.96001 170.355 4.88001C170.355 3.80001 170.735 2.88001 171.495 2.12001C172.295 1.32001 173.235 0.920015 174.315 0.920015C175.395 0.920015 176.315 1.32001 177.075 2.12001C177.875 2.88001 178.275 3.80001 178.275 4.88001C178.275 5.96001 177.875 6.90001 177.075 7.70001C176.315 8.46001 175.395 8.84001 174.315 8.84001Z" fill="url(#paint5_linear_123_232)"></path> <path d="M200.04 47.24C196.92 47.24 194.1 46.52 191.58 45.08C189.1 43.6 187.12 41.6 185.64 39.08C184.2 36.56 183.48 33.72 183.48 30.56C183.48 27.4 184.14 24.58 185.46 22.1C186.82 19.58 188.66 17.6 190.98 16.16C193.3 14.68 195.92 13.94 198.84 13.94C201.2 13.94 203.38 14.44 205.38 15.44C207.38 16.4 209.06 17.72 210.42 19.4V3.20001C210.42 2.28001 210.7 1.54001 211.26 0.980014C211.86 0.420014 212.6 0.140015 213.48 0.140015C214.4 0.140015 215.14 0.420014 215.7 0.980014C216.26 1.54001 216.54 2.28001 216.54 3.20001V30.56C216.54 33.72 215.8 36.56 214.32 39.08C212.88 41.6 210.92 43.6 208.44 45.08C205.96 46.52 203.16 47.24 200.04 47.24ZM200.04 41.84C202.08 41.84 203.9 41.36 205.5 40.4C207.1 39.4 208.36 38.04 209.28 36.32C210.2 34.6 210.66 32.68 210.66 30.56C210.66 28.4 210.2 26.48 209.28 24.8C208.36 23.12 207.1 21.8 205.5 20.84C203.9 19.84 202.08 19.34 200.04 19.34C198.04 19.34 196.22 19.84 194.58 20.84C192.98 21.8 191.7 23.12 190.74 24.8C189.82 26.48 189.36 28.4 189.36 30.56C189.36 32.68 189.82 34.6 190.74 36.32C191.7 38.04 192.98 39.4 194.58 40.4C196.22 41.36 198.04 41.84 200.04 41.84Z" fill="url(#paint6_linear_123_232)"></path> <path d="M238.628 47.24C235.388 47.24 232.528 46.54 230.048 45.14C227.568 43.7 225.608 41.74 224.168 39.26C222.768 36.74 222.068 33.86 222.068 30.62C222.068 27.34 222.768 24.46 224.168 21.98C225.608 19.46 227.568 17.5 230.048 16.1C232.528 14.66 235.388 13.94 238.628 13.94C241.828 13.94 244.668 14.66 247.148 16.1C249.628 17.5 251.568 19.46 252.968 21.98C254.408 24.46 255.128 27.34 255.128 30.62C255.128 33.86 254.428 36.74 253.028 39.26C251.628 41.74 249.688 43.7 247.208 45.14C244.728 46.54 241.868 47.24 238.628 47.24ZM238.628 41.84C240.708 41.84 242.548 41.36 244.148 40.4C245.748 39.44 246.988 38.12 247.868 36.44C248.788 34.76 249.248 32.82 249.248 30.62C249.248 28.42 248.788 26.48 247.868 24.8C246.988 23.08 245.748 21.74 244.148 20.78C242.548 19.82 240.708 19.34 238.628 19.34C236.548 19.34 234.708 19.82 233.108 20.78C231.508 21.74 230.248 23.08 229.328 24.8C228.408 26.48 227.948 28.42 227.948 30.62C227.948 32.82 228.408 34.76 229.328 36.44C230.248 38.12 231.508 39.44 233.108 40.4C234.708 41.36 236.548 41.84 238.628 41.84Z" fill="url(#paint7_linear_123_232)"></path> <path d="M104.08 93.24C101.08 93.24 98.4202 92.54 96.1002 91.14C93.8202 89.7 92.0202 87.74 90.7002 85.26C89.3802 82.74 88.7202 79.86 88.7202 76.62C88.7202 73.34 89.4202 70.46 90.8202 67.98C92.2602 65.46 94.2202 63.5 96.7002 62.1C99.1802 60.66 102.04 59.94 105.28 59.94C108.48 59.94 111.32 60.66 113.8 62.1C116.28 63.5 118.22 65.46 119.62 67.98C121.06 70.46 121.78 73.34 121.78 76.62H118.24C118.24 79.86 117.62 82.74 116.38 85.26C115.18 87.74 113.52 89.7 111.4 91.14C109.28 92.54 106.84 93.24 104.08 93.24ZM105.16 106.62C102.32 106.62 99.6602 106.06 97.1802 104.94C94.7002 103.82 92.6002 102.18 90.8802 100.02C90.3602 99.34 90.1602 98.64 90.2802 97.92C90.4402 97.2 90.8402 96.62 91.4802 96.18C92.2002 95.7 92.9402 95.54 93.7002 95.7C94.5002 95.86 95.1402 96.26 95.6202 96.9C96.7002 98.26 98.0602 99.32 99.7002 100.08C101.34 100.84 103.2 101.22 105.28 101.22C107.2 101.22 108.96 100.76 110.56 99.84C112.2 98.92 113.5 97.56 114.46 95.76C115.42 93.96 115.9 91.76 115.9 89.16V80.64L117.88 75.36L121.78 76.62V89.58C121.78 92.74 121.08 95.6 119.68 98.16C118.28 100.76 116.32 102.82 113.8 104.34C111.32 105.86 108.44 106.62 105.16 106.62ZM105.28 87.84C107.36 87.84 109.2 87.36 110.8 86.4C112.4 85.44 113.64 84.12 114.52 82.44C115.44 80.76 115.9 78.82 115.9 76.62C115.9 74.42 115.44 72.48 114.52 70.8C113.64 69.08 112.4 67.74 110.8 66.78C109.2 65.82 107.36 65.34 105.28 65.34C103.2 65.34 101.36 65.82 99.7602 66.78C98.1602 67.74 96.9002 69.08 95.9802 70.8C95.0602 72.48 94.6002 74.42 94.6002 76.62C94.6002 78.82 95.0602 80.76 95.9802 82.44C96.9002 84.12 98.1602 85.44 99.7602 86.4C101.36 87.36 103.2 87.84 105.28 87.84Z" fill="url(#paint8_linear_123_232)"></path> <path d="M140.968 93.24C138.048 93.24 135.428 92.52 133.108 91.08C130.788 89.6 128.948 87.62 127.588 85.14C126.268 82.62 125.608 79.78 125.608 76.62C125.608 73.46 126.328 70.62 127.768 68.1C129.248 65.58 131.228 63.6 133.708 62.16C136.228 60.68 139.048 59.94 142.168 59.94C145.288 59.94 148.088 60.68 150.568 62.16C153.048 63.6 155.008 65.58 156.448 68.1C157.928 70.62 158.668 73.46 158.668 76.62H156.328C156.328 79.78 155.648 82.62 154.288 85.14C152.968 87.62 151.148 89.6 148.828 91.08C146.508 92.52 143.888 93.24 140.968 93.24ZM142.168 87.84C144.208 87.84 146.028 87.36 147.628 86.4C149.228 85.4 150.488 84.06 151.408 82.38C152.328 80.66 152.788 78.74 152.788 76.62C152.788 74.46 152.328 72.54 151.408 70.86C150.488 69.14 149.228 67.8 147.628 66.84C146.028 65.84 144.208 65.34 142.168 65.34C140.168 65.34 138.348 65.84 136.708 66.84C135.108 67.8 133.828 69.14 132.868 70.86C131.948 72.54 131.488 74.46 131.488 76.62C131.488 78.74 131.948 80.66 132.868 82.38C133.828 84.06 135.108 85.4 136.708 86.4C138.348 87.36 140.168 87.84 142.168 87.84ZM155.608 93.06C154.728 93.06 153.988 92.78 153.388 92.22C152.828 91.62 152.548 90.88 152.548 90V80.82L153.688 74.46L158.668 76.62V90C158.668 90.88 158.368 91.62 157.768 92.22C157.208 92.78 156.488 93.06 155.608 93.06Z" fill="url(#paint9_linear_123_232)"></path> <path d="M207.257 93.06C206.377 93.06 205.637 92.78 205.037 92.22C204.477 91.62 204.197 90.88 204.197 90V72.84C204.197 70.32 203.577 68.46 202.337 67.26C201.097 66.02 199.477 65.4 197.477 65.4C195.397 65.4 193.677 66.12 192.317 67.56C190.997 69 190.337 70.84 190.337 73.08H185.357C185.357 70.48 185.917 68.2 187.037 66.24C188.157 64.24 189.717 62.68 191.717 61.56C193.757 60.44 196.077 59.88 198.677 59.88C200.957 59.88 202.977 60.38 204.737 61.38C206.497 62.38 207.857 63.86 208.817 65.82C209.817 67.74 210.317 70.08 210.317 72.84V90C210.317 90.88 210.037 91.62 209.477 92.22C208.917 92.78 208.177 93.06 207.257 93.06ZM167.237 93.06C166.357 93.06 165.617 92.78 165.017 92.22C164.457 91.62 164.177 90.88 164.177 90V63.3C164.177 62.38 164.457 61.64 165.017 61.08C165.617 60.52 166.357 60.24 167.237 60.24C168.157 60.24 168.897 60.52 169.457 61.08C170.017 61.64 170.297 62.38 170.297 63.3V90C170.297 90.88 170.017 91.62 169.457 92.22C168.897 92.78 168.157 93.06 167.237 93.06ZM187.277 93.06C186.397 93.06 185.657 92.78 185.057 92.22C184.497 91.62 184.217 90.88 184.217 90V72.84C184.217 70.32 183.597 68.46 182.357 67.26C181.117 66.02 179.497 65.4 177.497 65.4C175.417 65.4 173.697 66.12 172.337 67.56C170.977 69 170.297 70.84 170.297 73.08H166.517C166.517 70.48 167.037 68.2 168.077 66.24C169.117 64.24 170.557 62.68 172.397 61.56C174.237 60.44 176.337 59.88 178.697 59.88C180.977 59.88 182.997 60.38 184.757 61.38C186.517 62.38 187.877 63.86 188.837 65.82C189.837 67.74 190.337 70.08 190.337 72.84V90C190.337 90.88 190.057 91.62 189.497 92.22C188.937 92.78 188.197 93.06 187.277 93.06Z" fill="url(#paint10_linear_123_232)"></path> <path d="M232.305 93.24C228.985 93.24 226.025 92.54 223.425 91.14C220.865 89.7 218.845 87.74 217.365 85.26C215.925 82.74 215.205 79.86 215.205 76.62C215.205 73.34 215.885 70.46 217.245 67.98C218.645 65.46 220.565 63.5 223.005 62.1C225.445 60.66 228.245 59.94 231.405 59.94C234.525 59.94 237.205 60.64 239.445 62.04C241.685 63.4 243.385 65.3 244.545 67.74C245.745 70.14 246.345 72.92 246.345 76.08C246.345 76.84 246.085 77.48 245.565 78C245.045 78.48 244.385 78.72 243.585 78.72H219.405V73.92H243.405L240.945 75.6C240.905 73.6 240.505 71.82 239.745 70.26C238.985 68.66 237.905 67.4 236.505 66.48C235.105 65.56 233.405 65.1 231.405 65.1C229.125 65.1 227.165 65.6 225.525 66.6C223.925 67.6 222.705 68.98 221.865 70.74C221.025 72.46 220.605 74.42 220.605 76.62C220.605 78.82 221.105 80.78 222.105 82.5C223.105 84.22 224.485 85.58 226.245 86.58C228.005 87.58 230.025 88.08 232.305 88.08C233.545 88.08 234.805 87.86 236.085 87.42C237.405 86.94 238.465 86.4 239.265 85.8C239.865 85.36 240.505 85.14 241.185 85.14C241.905 85.1 242.525 85.3 243.045 85.74C243.725 86.34 244.085 87 244.125 87.72C244.165 88.44 243.845 89.06 243.165 89.58C241.805 90.66 240.105 91.54 238.065 92.22C236.065 92.9 234.145 93.24 232.305 93.24Z" fill="url(#paint11_linear_123_232)"></path> <path d="M262.491 93.24C259.691 93.24 257.091 92.82 254.691 91.98C252.331 91.1 250.491 90 249.171 88.68C248.571 88.04 248.311 87.32 248.391 86.52C248.511 85.68 248.911 85 249.591 84.48C250.391 83.84 251.171 83.58 251.931 83.7C252.731 83.78 253.411 84.12 253.971 84.72C254.651 85.48 255.731 86.2 257.211 86.88C258.731 87.52 260.411 87.84 262.251 87.84C264.571 87.84 266.331 87.46 267.531 86.7C268.771 85.94 269.411 84.96 269.451 83.76C269.491 82.56 268.911 81.52 267.711 80.64C266.551 79.76 264.411 79.04 261.291 78.48C257.251 77.68 254.311 76.48 252.471 74.88C250.671 73.28 249.771 71.32 249.771 69C249.771 66.96 250.371 65.28 251.571 63.96C252.771 62.6 254.311 61.6 256.191 60.96C258.071 60.28 260.031 59.94 262.071 59.94C264.711 59.94 267.051 60.36 269.091 61.2C271.131 62.04 272.751 63.2 273.951 64.68C274.511 65.32 274.771 66 274.731 66.72C274.691 67.4 274.351 67.98 273.711 68.46C273.071 68.9 272.311 69.04 271.431 68.88C270.551 68.72 269.811 68.36 269.211 67.8C268.211 66.84 267.131 66.18 265.971 65.82C264.811 65.46 263.471 65.28 261.951 65.28C260.191 65.28 258.691 65.58 257.451 66.18C256.251 66.78 255.651 67.66 255.651 68.82C255.651 69.54 255.831 70.2 256.191 70.8C256.591 71.36 257.351 71.88 258.471 72.36C259.591 72.8 261.231 73.24 263.391 73.68C266.391 74.28 268.751 75.04 270.471 75.96C272.231 76.88 273.491 77.96 274.251 79.2C275.011 80.4 275.391 81.8 275.391 83.4C275.391 85.24 274.891 86.9 273.891 88.38C272.931 89.86 271.491 91.04 269.571 91.92C267.691 92.8 265.331 93.24 262.491 93.24Z" fill="url(#paint12_linear_123_232)"></path> <defs> <linearGradient id="paint0_linear_123_232" x1="-24.9544" y1="107.898" x2="59.4592" y2="-13.666" gradientUnits="userSpaceOnUse"> <stop stop-color="#4958DD"></stop> <stop offset="0.16078" stop-color="#4958DD"></stop> <stop offset="0.8902" stop-color="#53FF98"></stop> <stop offset="1" stop-color="#53FF98"></stop> </linearGradient> <linearGradient id="paint1_linear_123_232" x1="376.992" y1="-112.762" x2="3966.13" y2="-5246.25" gradientUnits="userSpaceOnUse"> <stop stop-color="#4958DD"></stop> <stop offset="0.16078" stop-color="#4958DD"></stop> <stop offset="0.8902" stop-color="#53FF98"></stop> <stop offset="1" stop-color="#53FF98"></stop> </linearGradient> <linearGradient id="paint2_linear_123_232" x1="-2.12391" y1="184.406" x2="91.8275" y2="-91.7936" gradientUnits="userSpaceOnUse"> <stop offset="0.14401" stop-color="#4958DD"></stop> <stop offset="0.284012" stop-color="#4958DD"></stop> <stop offset="0.8902" stop-color="#53FF98"></stop> <stop offset="1" stop-color="#53FF98"></stop> </linearGradient> <linearGradient id="paint3_linear_123_232" x1="-2.12391" y1="184.406" x2="91.8275" y2="-91.7936" gradientUnits="userSpaceOnUse"> <stop offset="0.14401" stop-color="#4958DD"></stop> <stop offset="0.284012" stop-color="#4958DD"></stop> <stop offset="0.8902" stop-color="#53FF98"></stop> <stop offset="1" stop-color="#53FF98"></stop> </linearGradient> <linearGradient id="paint4_linear_123_232" x1="-2.12391" y1="184.406" x2="91.8275" y2="-91.7936" gradientUnits="userSpaceOnUse"> <stop offset="0.14401" stop-color="#4958DD"></stop> <stop offset="0.284012" stop-color="#4958DD"></stop> <stop offset="0.8902" stop-color="#53FF98"></stop> <stop offset="1" stop-color="#53FF98"></stop> </linearGradient> <linearGradient id="paint5_linear_123_232" x1="-2.12391" y1="184.406" x2="91.8275" y2="-91.7936" gradientUnits="userSpaceOnUse"> <stop offset="0.14401" stop-color="#4958DD"></stop> <stop offset="0.284012" stop-color="#4958DD"></stop> <stop offset="0.8902" stop-color="#53FF98"></stop> <stop offset="1" stop-color="#53FF98"></stop> </linearGradient> <linearGradient id="paint6_linear_123_232" x1="-2.12391" y1="184.406" x2="91.8275" y2="-91.7936" gradientUnits="userSpaceOnUse"> <stop offset="0.14401" stop-color="#4958DD"></stop> <stop offset="0.284012" stop-color="#4958DD"></stop> <stop offset="0.8902" stop-color="#53FF98"></stop> <stop offset="1" stop-color="#53FF98"></stop> </linearGradient> <linearGradient id="paint7_linear_123_232" x1="-2.12391" y1="184.406" x2="91.8275" y2="-91.7936" gradientUnits="userSpaceOnUse"> <stop offset="0.14401" stop-color="#4958DD"></stop> <stop offset="0.284012" stop-color="#4958DD"></stop> <stop offset="0.8902" stop-color="#53FF98"></stop> <stop offset="1" stop-color="#53FF98"></stop> </linearGradient> <linearGradient id="paint8_linear_123_232" x1="-2.12391" y1="184.406" x2="91.8275" y2="-91.7936" gradientUnits="userSpaceOnUse"> <stop offset="0.14401" stop-color="#4958DD"></stop> <stop offset="0.284012" stop-color="#4958DD"></stop> <stop offset="0.8902" stop-color="#53FF98"></stop> <stop offset="1" stop-color="#53FF98"></stop> </linearGradient> <linearGradient id="paint9_linear_123_232" x1="-2.12391" y1="184.406" x2="91.8275" y2="-91.7936" gradientUnits="userSpaceOnUse"> <stop offset="0.14401" stop-color="#4958DD"></stop> <stop offset="0.284012" stop-color="#4958DD"></stop> <stop offset="0.8902" stop-color="#53FF98"></stop> <stop offset="1" stop-color="#53FF98"></stop> </linearGradient> <linearGradient id="paint10_linear_123_232" x1="-2.12391" y1="184.406" x2="91.8275" y2="-91.7936" gradientUnits="userSpaceOnUse"> <stop offset="0.14401" stop-color="#4958DD"></stop> <stop offset="0.284012" stop-color="#4958DD"></stop> <stop offset="0.8902" stop-color="#53FF98"></stop> <stop offset="1" stop-color="#53FF98"></stop> </linearGradient> <linearGradient id="paint11_linear_123_232" x1="-2.12391" y1="184.406" x2="91.8275" y2="-91.7936" gradientUnits="userSpaceOnUse"> <stop offset="0.14401" stop-color="#4958DD"></stop> <stop offset="0.284012" stop-color="#4958DD"></stop> <stop offset="0.8902" stop-color="#53FF98"></stop> <stop offset="1" stop-color="#53FF98"></stop> </linearGradient> <linearGradient id="paint12_linear_123_232" x1="-2.12391" y1="184.406" x2="91.8275" y2="-91.7936" gradientUnits="userSpaceOnUse"> <stop offset="0.14401" stop-color="#4958DD"></stop> <stop offset="0.284012" stop-color="#4958DD"></stop> <stop offset="0.8902" stop-color="#53FF98"></stop> <stop offset="1" stop-color="#53FF98"></stop> </linearGradient> </defs> </svg> 