<?xml version="1.0" encoding="UTF-8"?> <svg xmlns="http://www.w3.org/2000/svg" width="80" height="80" viewBox="0 0 80 80" fill="none"> <circle cx="40" cy="40" r="39" stroke="white" stroke-width="2"></circle> <path d="M54.4011 26.654C51.6599 25.4274 48.7217 24.5208 45.6491 24.0052C45.6217 24 45.5934 24.0034 45.568 24.0149C45.5427 24.0263 45.5215 24.0453 45.5075 24.0692C45.1313 24.7252 44.712 25.5803 44.4182 26.2558C41.1594 25.7727 37.8464 25.7727 34.5876 26.2558C34.2604 25.5071 33.8913 24.7771 33.4822 24.0692C33.4683 24.045 33.4474 24.0256 33.4221 24.0135C33.3968 24.0015 33.3684 23.9973 33.3407 24.0017C30.2698 24.5172 27.3316 25.4238 24.5886 26.6522C24.565 26.662 24.545 26.6788 24.5313 26.7002C18.9558 34.833 17.4275 42.7649 18.1782 50.5973C18.1803 50.6165 18.1863 50.635 18.1959 50.6518C18.2054 50.6686 18.2183 50.6833 18.2338 50.695C21.488 53.0459 25.1178 54.8367 28.9709 55.9925C28.9978 56.0007 29.0265 56.0007 29.0534 55.9924C29.0802 55.9842 29.1039 55.9681 29.1214 55.9463C29.9491 54.8441 30.6873 53.6797 31.3179 52.4567C31.3556 52.3856 31.3197 52.3003 31.2445 52.2718C30.0871 51.8394 28.9657 51.3175 27.8906 50.711C27.8713 50.7001 27.855 50.6846 27.8432 50.6659C27.8314 50.6471 27.8245 50.6258 27.8231 50.6038C27.8217 50.5817 27.8258 50.5597 27.8351 50.5397C27.8443 50.5196 27.8585 50.5021 27.8762 50.4888C28.102 50.3235 28.3277 50.1511 28.5427 49.9786C28.5621 49.9631 28.5854 49.9533 28.6101 49.9501C28.6347 49.947 28.6598 49.9507 28.6825 49.9609C35.7181 53.0967 43.3379 53.0967 50.2911 49.9609C50.3139 49.9501 50.3392 49.9459 50.3642 49.9487C50.3892 49.9516 50.413 49.9613 50.4327 49.9769C50.6477 50.1511 50.8716 50.3235 51.0992 50.4888C51.1171 50.5019 51.1315 50.5191 51.141 50.539C51.1506 50.5589 51.1551 50.5808 51.154 50.6028C51.1529 50.6248 51.1464 50.6462 51.1349 50.6651C51.1235 50.684 51.1075 50.6998 51.0884 50.711C50.017 51.3226 48.9026 51.8399 47.7327 52.2701C47.7147 52.2765 47.6984 52.2867 47.6847 52.3C47.671 52.3132 47.6603 52.3292 47.6534 52.3469C47.6464 52.3645 47.6434 52.3835 47.6444 52.4024C47.6454 52.4214 47.6505 52.4399 47.6593 52.4567C48.3042 53.678 49.0424 54.8406 49.854 55.9445C49.8709 55.9671 49.8944 55.9841 49.9213 55.993C49.9482 56.0019 49.9773 56.0023 50.0045 55.9943C53.8642 54.8417 57.4999 53.05 60.7578 50.695C60.7736 50.684 60.787 50.6698 60.7969 50.6532C60.8068 50.6366 60.813 50.6182 60.8151 50.5991C61.7109 41.5436 59.3137 33.6757 54.4566 26.7037C54.4447 26.6811 54.425 26.6634 54.4011 26.654ZM32.3696 45.8278C30.2519 45.8278 28.5051 43.9275 28.5051 41.597C28.5051 39.2647 30.2179 37.3661 32.3696 37.3661C34.5375 37.3661 36.2682 39.2807 36.2341 41.597C36.2341 43.9293 34.5213 45.8278 32.3696 45.8278V45.8278ZM46.6577 45.8278C44.5383 45.8278 42.7932 43.9275 42.7932 41.597C42.7932 39.2647 44.5042 37.3661 46.6577 37.3661C48.8256 37.3661 50.5563 39.2807 50.5223 41.597C50.5223 43.9293 48.8274 45.8278 46.6577 45.8278V45.8278Z" fill="white"></path> </svg> 