<?xml version="1.0" encoding="UTF-8"?> <svg xmlns="http://www.w3.org/2000/svg" width="80" height="80" viewBox="0 0 80 80" fill="none"> <circle cx="40" cy="40" r="39" stroke="white" stroke-width="2"></circle> <path d="M30.6263 55V30.7109H22.4806V55H30.6263ZM26.5545 27.3926C29.395 27.3926 31.1632 25.5275 31.1632 23.1967C31.1102 20.8134 29.3952 19 26.6084 19C23.8221 19 22 20.8134 22 23.1967C22 25.5276 23.7677 27.3926 26.5013 27.3926H26.5542H26.5545ZM35.1349 55H43.2806V41.4358C43.2806 40.7098 43.3336 39.9846 43.5487 39.4657C44.1375 38.0153 45.4778 36.5131 47.728 36.5131C50.6756 36.5131 51.8548 38.7405 51.8548 42.0057V54.9998H60V41.0727C60 33.612 55.9813 30.1406 50.622 30.1406C46.2277 30.1406 44.2983 32.575 43.2264 34.2331H43.2808V30.7104H35.1351C35.242 32.9895 35.1351 54.9995 35.1351 54.9995L35.1349 55Z" fill="white"></path> </svg> 