<?xml version="1.0" encoding="UTF-8"?> <svg xmlns="http://www.w3.org/2000/svg" width="141" height="80" viewBox="0 0 141 80" fill="none"> <rect x="1" y="1" width="139" height="78" rx="39" stroke="white" stroke-width="2"></rect> <path d="M58.1868 23.0035C57.7175 23.0375 57.2569 23.1472 56.8228 23.3282H56.817C56.4004 23.4928 54.4195 24.3228 51.4081 25.5809L40.6165 30.1082C32.873 33.3555 25.261 36.5532 25.261 36.5532L25.3516 36.5183C25.3516 36.5183 24.8268 36.6901 24.2786 37.0643C23.9399 37.279 23.6485 37.5599 23.4219 37.89C23.153 38.2832 22.9366 38.8846 23.017 39.5064C23.1486 40.5577 23.8327 41.1882 24.3239 41.5363C24.821 41.8887 25.2946 42.0532 25.2946 42.0532H25.3063L32.4446 44.4486C32.7648 45.4723 34.6199 51.5475 35.0658 52.9469C35.3289 53.7827 35.5847 54.3055 35.9049 54.7045C36.0598 54.9084 36.2411 55.0787 36.4589 55.2156C36.5722 55.2812 36.6929 55.3331 36.8186 55.37L36.7455 55.3525C36.7674 55.3583 36.7849 55.3758 36.801 55.3816C36.8595 55.3976 36.899 55.4035 36.9735 55.4151C38.1035 55.7559 39.0114 55.0569 39.0114 55.0569L39.0625 55.0161L43.2771 51.1937L50.3409 56.5917L50.5017 56.6601C51.9738 57.3038 53.4649 56.9456 54.2529 56.3136C55.0467 55.6772 55.3551 54.8632 55.3551 54.8632L55.4063 54.7322L60.8649 26.8769C61.0199 26.1896 61.0594 25.546 60.8883 24.9213C60.7119 24.289 60.3047 23.7453 59.7466 23.3966C59.278 23.1129 58.7345 22.9759 58.1868 23.0035V23.0035ZM58.0391 25.9886C58.0333 26.0804 58.0508 26.0702 58.0099 26.2464V26.2624L52.6024 53.8279C52.579 53.8672 52.5396 53.9531 52.4314 54.039C52.3173 54.1293 52.2267 54.1861 51.7516 53.9983L43.1119 47.4003L37.893 52.1387L38.9894 45.1636L53.1053 32.058C53.6871 31.5192 53.4927 31.4056 53.4927 31.4056C53.5336 30.7445 52.6141 31.212 52.6141 31.212L34.8143 42.1959L34.8085 42.1668L26.277 39.3054V39.2996L26.2551 39.2952C26.27 39.2903 26.2847 39.2844 26.2989 39.2777L26.3457 39.2544L26.391 39.2384C26.391 39.2384 34.0088 36.0407 41.7524 32.7934C45.6293 31.1668 49.5354 29.5286 52.5396 28.2647C55.5437 27.008 57.7643 26.0862 57.89 26.0367C58.0099 25.9901 57.9529 25.9901 58.0391 25.9901V25.9886Z" fill="white"></path> <path d="M101.501 52.4375C110.67 52.4371 117.812 45.9652 117.812 38.3125C117.812 30.6619 110.67 24.1875 101.5 24.1875C92.3299 24.1875 85.1875 30.6619 85.1875 38.3125C85.1875 41.8162 86.6627 45.0424 89.15 47.5367C89.2731 47.6604 89.3674 47.8097 89.4263 47.9739C89.4848 48.1373 89.5068 48.3114 89.4908 48.4841C89.3433 49.903 89.0642 51.3051 88.6569 52.6723L88.1662 54.3198L89.8409 53.932C92.9715 53.2072 94.9111 52.3613 95.829 51.8965L95.829 51.8965C96.0897 51.7645 96.3899 51.7332 96.6721 51.8086L96.6727 51.8088C98.2476 52.2286 99.8709 52.44 101.501 52.4375ZM101.501 52.4375C101.501 52.4375 101.5 52.4375 101.5 52.4375V51.4375L101.502 52.4375C101.501 52.4375 101.501 52.4375 101.501 52.4375ZM88.1024 53.7943L88.1088 53.7758L88.1144 53.757L88.1152 53.7543C88.6744 52.1266 89.1345 50.245 89.3048 48.4705L89.3498 48.002L89.0173 47.6688C86.4996 45.1449 85 41.8698 85 38.3125C85 30.5292 92.2583 24 101.5 24C110.742 24 118 30.5292 118 38.3125C118 46.0958 110.742 52.625 101.5 52.625H101.499C99.8528 52.6272 98.2139 52.4135 96.6236 51.9894L96.255 51.8911L95.9146 52.0633C94.8577 52.5978 92.4962 53.6157 88.585 54.3919C88.3349 54.4415 88.0845 54.489 87.8336 54.5345C87.9276 54.2894 88.0172 54.0426 88.1024 53.7943Z" fill="white" stroke="white" stroke-width="2"></path> </svg> 