<?xml version="1.0" encoding="UTF-8"?> <svg xmlns="http://www.w3.org/2000/svg" width="80" height="80" viewBox="0 0 80 80" fill="none"> <path d="M59 29.6144C57.6393 30.2251 56.1777 30.6378 54.641 30.8244C56.2266 29.8633 57.4128 28.3507 57.9783 26.5687C56.4887 27.4651 54.8583 28.096 53.1582 28.4341C52.0148 27.1974 50.5005 26.3778 48.8502 26.1023C47.1999 25.8269 45.5061 26.1111 44.0316 26.9108C42.5571 27.7106 41.3845 28.9811 40.6958 30.5251C40.0071 32.0691 39.8409 33.8003 40.223 35.4498C37.2046 35.2963 34.2518 34.5015 31.5562 33.1171C28.8607 31.7327 26.4826 29.7896 24.5763 27.4139C23.9245 28.5529 23.5497 29.8735 23.5497 31.28C23.549 32.5461 23.8567 33.7928 24.4457 34.9096C25.0347 36.0263 25.8867 36.9785 26.9261 37.6816C25.7207 37.6428 24.5419 37.3128 23.4878 36.7192V36.8183C23.4876 38.5941 24.094 40.3152 25.2039 41.6897C26.3139 43.0641 27.8591 44.0072 29.5773 44.359C28.4591 44.6655 27.2867 44.7107 26.1488 44.491C26.6336 46.019 27.5779 47.3551 28.8495 48.3124C30.1211 49.2697 31.6564 49.8002 33.2405 49.8296C30.5515 51.968 27.2306 53.1279 23.812 53.1228C23.2065 53.123 22.6014 53.0872 22 53.0155C25.47 55.2757 29.5094 56.4752 33.6348 56.4706C47.5998 56.4706 55.2342 44.7535 55.2342 34.5914C55.2342 34.2613 55.226 33.9278 55.2114 33.5977C56.6963 32.5098 57.9781 31.1626 58.9967 29.6193L59 29.6144V29.6144Z" fill="white"></path> <circle cx="40" cy="40" r="39" stroke="white" stroke-width="2"></circle> </svg> 